HIERARCHY
ROOT Hips
{
	OFFSET -0.001795 -0.223333 0.028219
	CHANNELS 6 Xposition Yposition Zposition Zrotation Yrotation Xrotation 
	JOINT LeftUpLeg
	{
		OFFSET 0.069520 -0.091406 -0.006815
		CHANNELS 3 Zrotation Yrotation Xrotation
		JOINT LeftLeg
		{
			OFFSET 0.034277 -0.375199 -0.004496
			CHANNELS 3 Zrotation Yrotation Xrotation
			JOINT LeftFoot
			{
				OFFSET -0.013596 -0.397961 -0.043693
				CHANNELS 3 Zrotation Yrotation Xrotation
				JOINT LeftToe
				{
					OFFSET 0.026358 -0.055791 0.119288
					CHANNELS 3 Zrotation Yrotation Xrotation
					End Site
					{
						OFFSET 0.000000 0.000000 0.000000
					}
				}
			}
		}
	}
	JOINT RightUpLeg
	{
		OFFSET -0.067670 -0.090522 -0.004320
		CHANNELS 3 Zrotation Yrotation Xrotation
		JOINT RightLeg
		{
			OFFSET -0.038290 -0.382569 -0.008850
			CHANNELS 3 Zrotation Yrotation Xrotation
			JOINT RightFoot
			{
				OFFSET 0.015774 -0.398415 -0.042312
				CHANNELS 3 Zrotation Yrotation Xrotation
				JOINT RightToe
				{
					OFFSET -0.025372 -0.048144 0.123348
					CHANNELS 3 Zrotation Yrotation Xrotation
					End Site
					{
						OFFSET 0.000000 0.000000 0.000000
					}
				}
			}
		}
	}
	JOINT Spine
	{
		OFFSET -0.002533 0.108963 -0.026696
		CHANNELS 3 Zrotation Yrotation Xrotation
		JOINT Spine1
		{
			OFFSET 0.005487 0.135180 0.001092
			CHANNELS 3 Zrotation Yrotation Xrotation
			JOINT Spine2
			{
				OFFSET 0.001457 0.052922 0.025425
				CHANNELS 3 Zrotation Yrotation Xrotation
				JOINT Neck
				{
					OFFSET -0.002778 0.213870 -0.042857
					CHANNELS 3 Zrotation Yrotation Xrotation
					JOINT Head
					{
						OFFSET 0.005152 0.064970 0.051349
						CHANNELS 3 Zrotation Yrotation Xrotation
						End Site
						{
							OFFSET 0.000000 0.000000 0.000000
						}
					}
				}
				JOINT LeftShoulder
				{
					OFFSET 0.078845 0.121749 -0.034090
					CHANNELS 3 Zrotation Yrotation Xrotation
					JOINT LeftArm
					{
						OFFSET 0.090977 0.030469 -0.008868
						CHANNELS 3 Zrotation Yrotation Xrotation
						JOINT LeftForeArm
						{
							OFFSET 0.259612 -0.012772 -0.027456
							CHANNELS 3 Zrotation Yrotation Xrotation
							JOINT LeftHand
							{
								OFFSET 0.249234 0.008986 -0.001171
								CHANNELS 3 Zrotation Yrotation Xrotation
								End Site
								{
									OFFSET 0.000000 0.000000 0.000000
								}
							}
						}
					}
				}
				JOINT RightShoulder
				{
					OFFSET -0.081759 0.118833 -0.038615
					CHANNELS 3 Zrotation Yrotation Xrotation
					JOINT RightArm
					{
						OFFSET -0.096012 0.032551 -0.009143
						CHANNELS 3 Zrotation Yrotation Xrotation
						JOINT RightForeArm
						{
							OFFSET -0.253742 -0.013329 -0.021401
							CHANNELS 3 Zrotation Yrotation Xrotation
							JOINT RightHand
							{
								OFFSET -0.255298 0.007772 -0.005559
								CHANNELS 3 Zrotation Yrotation Xrotation
								End Site
								{
									OFFSET 0.000000 0.000000 0.000000
								}
							}
						}
					}
				}
			}
		}
	}
}
MOTION
Frames: 9
Frame Time: 0.050000
0.000000 0.938962 0.000000 1.159495 -4.335907 1.048519 1.108299 0.234390 2.807275 -2.058676 0.303064 -3.728016 6.437799 14.503768 10.591044 0.000000 0.000000 0.000000 -3.681574 0.123499 0.123318 5.300031 -0.504840 1.116305 -5.099397 -14.183293 7.709036 0.000000 0.000000 0.000000 7.354131 -0.934323 8.443040 -7.111436 2.222698 -24.810347 -1.962175 6.548268 25.490529 9.416451 -4.513165 -19.202697 0.000000 0.000000 0.000000 -5.597130 -4.165853 1.170339 -8.556267 -3.913769 -1.236175 20.944555 -3.043405 -0.569230 0.000000 0.000000 0.000000 13.077024 -6.650368 -3.318295 8.637747 3.709636 -1.312408 -17.197512 10.917003 -0.907424 0.000000 0.000000 0.000000 
0.000107 0.938568 0.000049 0.923180 -4.051321 0.969982 1.137204 0.348003 4.126953 -1.604016 0.311988 -5.930520 6.171941 14.112152 10.819848 0.000000 0.000000 0.000000 -3.215653 0.042464 1.014420 4.970119 -0.471873 -0.224049 -5.142692 -14.280618 7.887619 0.000000 0.000000 0.000000 8.014252 -1.051387 9.037712 -7.795067 2.398986 -24.589915 -2.362731 6.749524 24.236658 8.979488 -4.023483 -19.623199 0.000000 0.000000 0.000000 -5.037284 -5.025067 1.482358 -9.381055 -4.386768 -1.287966 20.134785 -3.118911 -0.558304 0.000000 0.000000 0.000000 14.511470 -7.109032 -3.625870 9.144027 1.828983 -1.386658 -16.514760 13.101479 -1.096545 0.000000 0.000000 0.000000 
-0.000013 0.938173 0.000012 1.017293 -4.772213 0.604759 1.462899 0.325612 3.951574 -2.477325 0.357176 -4.772587 6.559087 14.686775 10.577763 0.000000 0.000000 0.000000 -3.718351 0.092769 0.638368 5.562004 -0.525334 1.017312 -4.902744 -13.753752 7.404226 0.000000 0.000000 0.000000 8.341748 -1.107505 9.471521 -8.501754 2.521013 -25.587768 -1.848964 7.452986 25.983056 9.216520 -3.995564 -20.756355 0.000000 0.000000 0.000000 -5.574174 -5.599823 1.692292 -9.177997 -4.631568 -1.289690 19.457057 -1.597822 -0.325645 0.000000 0.000000 0.000000 15.412467 -7.351381 -3.758379 9.863865 3.345551 -1.505248 -15.935523 11.306934 -0.834015 0.000000 0.000000 0.000000 
-0.000158 0.938372 0.000110 1.400738 -4.549093 0.099287 1.289972 0.399212 4.701998 -2.838644 0.389961 -5.203921 6.325193 14.336865 10.779620 0.000000 0.000000 0.000000 -3.683411 0.029478 1.540739 4.795842 -0.452122 0.411762 -4.997203 -13.914955 7.352179 0.000000 0.000000 0.000000 8.093943 -1.102843 9.751143 -8.690975 2.581381 -25.514893 -2.212283 7.211918 26.550454 8.907431 -3.676118 -21.636184 0.000000 0.000000 0.000000 -5.552416 -6.154311 1.927598 -11.028678 -5.010425 -1.508503 19.915599 -1.254085 -0.273553 0.000000 0.000000 0.000000 16.442471 -7.321130 -3.835097 10.370902 3.160586 -1.586835 -15.172886 11.698211 -0.820408 0.000000 0.000000 0.000000 
-0.000397 0.938646 0.000258 1.384643 -5.057880 -0.228311 1.257105 0.412381 4.774960 -2.804621 0.383688 -4.583430 6.591743 14.749002 10.828084 0.000000 0.000000 0.000000 -3.692609 0.022081 1.709649 4.766402 -0.443798 0.667279 -4.768361 -13.473694 7.289878 0.000000 0.000000 0.000000 7.617205 -1.077212 10.050917 -7.818350 2.376235 -25.270787 -2.506001 7.712149 26.153134 9.277948 -3.953962 -21.154114 0.000000 0.000000 0.000000 -6.913169 -6.219053 1.877791 -11.988901 -5.085220 -1.595676 19.871255 -2.597285 -0.461715 0.000000 0.000000 0.000000 17.078690 -6.977742 -3.680392 11.901642 3.591050 -1.766594 -14.732177 12.241951 -0.820367 0.000000 0.000000 0.000000 
-0.000637 0.938849 0.000490 1.541478 -5.017551 -0.241521 0.914621 0.416243 4.654793 -2.468579 0.352556 -4.355807 6.591421 14.754169 10.894955 0.000000 0.000000 0.000000 -3.950041 0.036109 1.693504 4.951019 -0.462167 0.731578 -4.779988 -13.499614 7.315066 0.000000 0.000000 0.000000 7.233125 -1.028231 9.900414 -8.198371 2.484630 -24.865720 -2.278061 7.133753 26.066146 9.039097 -3.753104 -21.883344 0.000000 0.000000 0.000000 -7.786921 -6.027717 1.821345 -13.680167 -5.179357 -1.798981 19.767312 -3.642526 -0.572091 0.000000 0.000000 0.000000 18.052696 -6.533886 -3.642242 13.918556 4.122489 -1.965378 -14.416059 12.997391 -0.861737 0.000000 0.000000 0.000000 
-0.000830 0.938846 0.000692 1.629598 -5.281820 -0.286606 1.131359 0.393468 4.482926 -3.049602 0.398921 -3.905449 6.707620 14.927976 10.899194 0.000000 0.000000 0.000000 -4.000058 0.055253 1.459156 4.841591 -0.448298 1.196197 -4.714019 -13.344472 7.138494 0.000000 0.000000 0.000000 7.083733 -1.030051 10.104981 -7.939824 2.434878 -24.437893 -2.565658 7.451377 25.655326 9.377444 -3.926221 -21.909734 0.000000 0.000000 0.000000 -9.449032 -6.245835 1.819308 -14.802745 -4.829281 -1.925535 19.379170 -4.725456 -0.701789 0.000000 0.000000 0.000000 19.666935 -6.282235 -3.620957 15.350542 4.356718 -2.122578 -13.287492 13.728760 -0.808292 0.000000 0.000000 0.000000 
-0.001030 0.938728 0.000831 1.626789 -5.160658 -0.216281 1.243464 0.343762 3.991651 -3.202539 0.406176 -3.170307 6.708731 14.921003 10.694171 0.000000 0.000000 0.000000 -3.736920 0.076047 0.892404 4.429251 -0.404557 2.127317 -4.862451 -13.595530 6.936027 0.000000 0.000000 0.000000 7.193347 -1.042103 10.096211 -8.111002 2.489683 -24.156388 -2.604023 7.295891 25.918539 9.912588 -4.188780 -22.546271 0.000000 0.000000 0.000000 -11.393666 -6.295976 1.778669 -16.062118 -4.654328 -2.095692 18.886753 -6.100476 -0.847319 0.000000 0.000000 0.000000 21.512438 -5.863854 -3.549935 17.216852 4.558826 -2.346256 -12.397311 14.445516 -0.765619 0.000000 0.000000 0.000000 
-0.001243 0.938382 0.000814 1.636130 -5.227391 -0.133987 1.375417 0.315955 3.728923 -3.445556 0.428292 -2.850788 6.769830 15.007264 10.557441 0.000000 0.000000 0.000000 -3.777862 0.098026 0.585703 4.504630 -0.410261 2.503997 -4.880936 -13.598175 6.751932 0.000000 0.000000 0.000000 7.118633 -1.026171 9.984364 -7.900300 2.456125 -23.613012 -2.799318 7.428707 25.756786 10.078778 -4.185061 -23.006033 0.000000 0.000000 0.000000 -13.039183 -6.592605 1.820311 -17.614392 -4.509415 -2.274756 18.057356 -7.566403 -0.973365 0.000000 0.000000 0.000000 23.144542 -5.464692 -3.434528 19.353802 4.711660 -2.587033 -11.677639 15.537327 -0.746251 0.000000 0.000000 0.000000 
